# xmcd
#
# Track frame offsets: 
#        150
#        23797
#        43380
#        60225
#        81684
#        107765
#        124305
#        147161
#        166301
#        190566
#        218764
#        242473
#        258315
#
# Disc length: 3751 seconds
#
# Revision: 0
# Processed by: cddbd v1.5.2PL0 Copyright (c) Steve Scherf et al.
# Submitted via: ExactAudioCopy v1.0b3
#
DISCID=b30ea50d
DTITLE=Sadistik - Flowers for My Father
DYEAR=2013
DGENRE=Hip-Hop
TTITLE0=Petrichor
TTITLE1=Russian Roulette (feat. Cage and Yes Alexander)
TTITLE2=City in Amber (feat. Lotte Kestner)
TTITLE3=Snow White
TTITLE4=The Beast
TTITLE5=Kill the King (feat. Deacon the Villain)
TTITLE6=Song for the End of the World
TTITLE7=Palmreader (feat. Child Actor)
TTITLE8=Micheal
TTITLE9=Seven Devils
TTITLE10=Exit Theme (feat. Astronautalis and Lotte Kestner)
TTITLE11=Melancholia
TTITLE12=A Long Winter (feat. Ceschi)
EXTD=
EXTT0=
EXTT1=
EXTT2=
EXTT3=
EXTT4=
EXTT5=
EXTT6=
EXTT7=
EXTT8=
EXTT9=
EXTT10=
EXTT11=
EXTT12=
PLAYORDER=
